<svg width="165" height="129" viewBox="0 0 165 129" fill="none" xmlns="http://www.w3.org/2000/svg">
<path d="M177.744 10.252L189.589 -10.2024C190.698 -12.1169 190.064 -14.5353 188.161 -15.6506C186.257 -16.7658 183.853 -16.1278 182.745 -14.2134L176.424 -3.29766C176.054 -2.65951 175.209 -2.43517 174.574 -2.80692C173.94 -3.17867 173.717 -4.02911 174.086 -4.66726L176.245 -8.3954C176.848 -9.43659 176.507 -10.7388 175.472 -11.3454C174.437 -11.9519 173.142 -11.6084 172.539 -10.5672L166.743 -0.558306C165.44 1.69201 162.862 2.74558 160.483 2.18321C159.911 2.05065 159.378 1.85091 158.844 1.53786L158.577 1.38134L147.296 20.8617C147.25 20.9023 177.793 10.438 177.744 10.252Z" fill="#CEF0E6"/>
<path d="M130.874 126.801C181.877 126.801 223.224 85.2082 223.224 33.9006C223.224 -17.407 181.877 -59 130.874 -59C79.8708 -59 38.5244 -17.407 38.5244 33.9006C38.5244 85.2082 79.8708 126.801 130.874 126.801Z" fill="#2AC0EB"/>
<path d="M73.6092 6.64897C73.9775 6.27847 74.6137 6.27847 74.982 6.64897L77.9284 9.61294C78.2967 9.98343 78.2967 10.6234 77.9284 10.9939C77.5601 11.3644 76.9239 11.3644 76.5556 10.9939L73.6092 8.02991C73.2409 7.65941 73.2409 7.05314 73.6092 6.64897Z" fill="#31346B"/>
<path d="M77.9616 6.64897C78.3299 7.01946 78.3299 7.65941 77.9616 8.02991L75.0152 10.9939C74.6469 11.3644 74.0107 11.3644 73.6424 10.9939C73.2741 10.6234 73.2741 9.98343 73.6424 9.61294L76.5888 6.64897C76.9571 6.27847 77.5598 6.27847 77.9616 6.64897Z" fill="#31346B"/>
<path d="M59.0985 13.836C61.9655 13.836 64.2897 11.498 64.2897 8.61382C64.2897 5.72967 61.9655 3.3916 59.0985 3.3916C56.2314 3.3916 53.9072 5.72967 53.9072 8.61382C53.9072 11.498 56.2314 13.836 59.0985 13.836Z" fill="#CEF0E6"/>
<path d="M79.9621 85.2241C81.417 83.7606 83.68 83.7606 85.1348 85.2241L96.1269 96.2817C97.5817 97.7452 97.5817 100.022 96.1269 101.485C94.6721 102.949 92.409 102.949 90.9541 101.485L79.9621 90.4277C78.5881 88.9642 78.5881 86.6876 79.9621 85.2241Z" fill="#64B9B0"/>
<path d="M96.127 85.2241C97.5818 86.6877 97.5818 88.9642 96.127 90.4277L85.1349 101.485C83.6801 102.949 81.417 102.949 79.9622 101.485C78.5074 100.022 78.5074 97.7452 79.9622 96.2817L90.9542 85.2241C92.409 83.842 94.6721 83.842 96.127 85.2241Z" fill="#64B9B0"/>
<path d="M97.4101 20.563C90.4689 20.563 84.8418 26.2237 84.8418 33.2063C84.8418 40.1889 90.4689 45.8495 97.4101 45.8495C104.351 45.8495 109.978 40.1889 109.978 33.2063C109.978 26.2237 104.351 20.563 97.4101 20.563ZM97.4101 43.3751C91.8167 43.3751 87.3015 38.833 87.3015 33.2063C87.3015 27.6134 91.8167 23.0374 97.4101 23.0374C102.97 23.0374 107.519 27.5795 107.519 33.2063C107.519 38.7991 103.003 43.3751 97.4101 43.3751Z" fill="#B8E3DB"/>
<path d="M53.4826 106.115C55.4442 106.115 57.0345 104.515 57.0345 102.542C57.0345 100.568 55.4442 98.9688 53.4826 98.9688C51.5209 98.9688 49.9307 100.568 49.9307 102.542C49.9307 104.515 51.5209 106.115 53.4826 106.115Z" fill="#64B9B0"/>
<path d="M50.3273 114.451C50.919 114.451 51.3987 113.968 51.3987 113.373C51.3987 112.778 50.919 112.295 50.3273 112.295C49.7355 112.295 49.2559 112.778 49.2559 113.373C49.2559 113.968 49.7355 114.451 50.3273 114.451Z" fill="#31346B"/>
<path d="M50.3273 120.009C50.919 120.009 51.3987 119.526 51.3987 118.931C51.3987 118.336 50.919 117.853 50.3273 117.853C49.7355 117.853 49.2559 118.336 49.2559 118.931C49.2559 119.526 49.7355 120.009 50.3273 120.009Z" fill="#31346B"/>
<path d="M55.6847 114.451C56.2764 114.451 56.7561 113.968 56.7561 113.373C56.7561 112.778 56.2764 112.295 55.6847 112.295C55.093 112.295 54.6133 112.778 54.6133 113.373C54.6133 113.968 55.093 114.451 55.6847 114.451Z" fill="#31346B"/>
<path d="M55.6847 120.009C56.2764 120.009 56.7561 119.526 56.7561 118.931C56.7561 118.336 56.2764 117.853 55.6847 117.853C55.093 117.853 54.6133 118.336 54.6133 118.931C54.6133 119.526 55.093 120.009 55.6847 120.009Z" fill="#31346B"/>
<path d="M39.4454 114.451C40.0372 114.451 40.5169 113.968 40.5169 113.373C40.5169 112.778 40.0372 112.295 39.4454 112.295C38.8537 112.295 38.374 112.778 38.374 113.373C38.374 113.968 38.8537 114.451 39.4454 114.451Z" fill="#31346B"/>
<path d="M39.4454 120.009C40.0372 120.009 40.5169 119.526 40.5169 118.931C40.5169 118.336 40.0372 117.853 39.4454 117.853C38.8537 117.853 38.374 118.336 38.374 118.931C38.374 119.526 38.8537 120.009 39.4454 120.009Z" fill="#31346B"/>
<path d="M44.8029 114.451C45.3946 114.451 45.8743 113.968 45.8743 113.373C45.8743 112.778 45.3946 112.295 44.8029 112.295C44.2111 112.295 43.7314 112.778 43.7314 113.373C43.7314 113.968 44.2111 114.451 44.8029 114.451Z" fill="#31346B"/>
<path d="M44.8029 120.009C45.3946 120.009 45.8743 119.526 45.8743 118.931C45.8743 118.336 45.3946 117.853 44.8029 117.853C44.2111 117.853 43.7314 118.336 43.7314 118.931C43.7314 119.526 44.2111 120.009 44.8029 120.009Z" fill="#31346B"/>
</svg>
